<?xml version="1.0" encoding="UTF-8"?>
<svg version="1.1" xmlns="http://www.w3.org/2000/svg" width="1024" height="1024">
<path d="M0 0 C20.46 0 40.92 0 62 0 C66.62 7.59 71.24 15.18 76 23 C80.79029022 30.75094677 80.79029022 30.75094677 85.58984375 38.49609375 C95.10149247 53.83701236 104.54119419 69.22177087 113.91064453 84.64990234 C118.37524122 91.99381261 122.89533441 99.30222685 127.42919922 106.60351562 C132.03007615 114.0232699 136.53883677 121.49556262 141 129 C153.41648652 110.00096866 165.35136608 90.70624574 177.22705078 71.3659668 C181.600036 64.25225715 186.02025093 57.17125442 190.49291992 50.11987305 C195.10518608 42.8473718 199.66763008 35.54415365 204.22290039 28.23583984 C210.11034673 18.7991303 216.06016468 9.40473926 222 0 C241.47 0 260.94 0 281 0 C281 92.73 281 185.46 281 281 C258.89 281 236.78 281 214 281 C213.95989119 256.7787357 213.95989119 256.7787357 213.95117188 246.19335938 C213.94526867 239.06143418 213.93840578 231.9295222 213.92456055 224.79760742 C213.8566029 188.8206567 214.32911233 152.94186036 216 117 C203.94394664 135.4647331 191.93804864 153.95739098 180.06298828 172.5390625 C175.2184304 180.11322488 170.33964136 187.66420168 165.42431641 195.19262695 C164.94269043 195.93085693 164.46106445 196.66908691 163.96484375 197.4296875 C163.4764502 198.15478516 162.98805664 198.87988281 162.48486328 199.62695312 C160.91443367 202.04487556 160.91443367 202.04487556 159.55810547 204.95117188 C155.6981092 212.35179925 155.6981092 212.35179925 150.99780273 214.14599609 C147.34235411 214.70813191 143.94722233 214.83383012 140.25 214.75 C138.98607422 214.73042236 137.72214844 214.71084473 136.41992188 214.69067383 C126.13659542 214.00677099 126.13659542 214.00677099 122.140625 209.83984375 C119.60969143 206.30943323 117.84839491 202.45053748 116.13525391 198.47167969 C114.2314634 194.3267388 111.68630177 190.61729293 109.1875 186.8125 C108.1751501 185.21298058 107.16609117 183.61137404 106.16015625 182.0078125 C102.82991593 176.72493048 99.47920059 171.4551926 96.125 166.1875 C95.54290771 165.27315186 94.96081543 164.35880371 94.36108398 163.41674805 C91.35940717 158.70265817 88.35596064 153.98969963 85.3515625 149.27734375 C84.44639893 147.85675659 84.44639893 147.85675659 83.52294922 146.4074707 C82.39757194 144.64130094 81.27165869 142.87547249 80.14501953 141.11010742 C76.6608272 135.64110708 73.21298042 130.15008408 69.77832031 124.64990234 C69.31736969 123.91205002 68.85641907 123.17419769 68.38150024 122.41398621 C67.25418203 120.60941875 66.12706994 118.80472253 65 117 C65.05993134 117.93911224 65.11986267 118.87822449 65.18161011 119.84579468 C67.17921726 152.01099433 67.25030863 184.14964624 67.14405322 216.36173606 C67.11888258 224.13567347 67.10842084 231.90962539 67.09765625 239.68359375 C67.07852534 253.45578748 67.03841018 267.22781678 67 281 C44.89 281 22.78 281 0 281 C0 188.27 0 95.54 0 0 Z " fill="#FF9900" transform="translate(240,147)"/>
<path d="M0 0 C22.77 0 45.54 0 69 0 C69.01458252 5.20813477 69.02916504 10.41626953 69.04418945 15.78222656 C69.09455454 33.00107818 69.16100395 50.21984007 69.23571491 67.43860245 C69.2806147 77.87702675 69.32004274 88.31541739 69.34643555 98.75390625 C69.36946278 107.85573615 69.40291344 116.95745897 69.44870156 126.05920386 C69.47257014 130.87520146 69.49134055 135.69109342 69.49761391 140.50714874 C69.50369366 145.0478415 69.52379706 149.58826419 69.55427551 154.12885666 C69.56300965 155.78795618 69.566788 157.44709106 69.56500816 159.10621262 C69.55183709 177.06246531 72.91973359 191.39292309 85.578125 204.7734375 C95.7391529 214.11502766 108.26102587 217.36544031 121.78125 217.21484375 C135.95706827 216.26864229 147.32432445 210.19604802 157 200 C165.19978793 190.29508847 169.09440744 179.43669779 169.15821838 166.79301453 C169.16315636 166.07820429 169.16809434 165.36339406 169.17318195 164.62692291 C169.18850874 162.23785647 169.19690446 159.84881681 169.20532227 157.4597168 C169.21490458 155.74471299 169.22491487 154.02971153 169.23532104 152.31471252 C169.26233786 147.66227944 169.28336488 143.00983624 169.30332303 138.35736823 C169.32520246 133.49398952 169.35258158 128.63064186 169.37937927 123.76728821 C169.42927968 114.55932022 169.47422836 105.35133497 169.51740164 96.14333326 C169.56679666 85.65972033 169.6217064 75.17613856 169.67708123 64.69255579 C169.79086058 43.12839817 169.89698045 21.56421189 170 0 C191.78 0 213.56 0 236 0 C236.06786051 23.71429156 236.12306516 47.42850386 236.15543652 71.14286804 C236.17087017 82.15517669 236.19189238 93.16742049 236.22631836 104.1796875 C236.25632831 113.78396558 236.27560042 123.38819666 236.28226548 132.99252033 C236.28615818 138.07249588 236.2952327 143.15233704 236.31719017 148.23226929 C236.33773899 153.02569946 236.34379711 157.81894146 236.33932304 162.6124115 C236.3401401 164.36016364 236.34599514 166.1079229 236.35761642 167.8556366 C236.5423443 197.10164976 227.71032677 221.37836882 208 243 C207.41734375 243.66515625 206.8346875 244.3303125 206.234375 245.015625 C186.65450647 266.17770513 154.88401501 276.45857687 126.84375 277.91015625 C125.9053125 277.93980469 124.966875 277.96945312 124 278 C123.1646875 278.03996094 122.329375 278.07992188 121.46875 278.12109375 C89.9144191 278.94890799 57.52873738 269.57097557 34 248 C33.07574219 247.15695312 32.15148437 246.31390625 31.19921875 245.4453125 C10.28653352 225.48714818 0.72106086 199.19854384 -0.17813492 170.66540337 C-0.26607593 166.1119887 -0.24836507 161.55959054 -0.22705078 157.00561523 C-0.22648482 155.27899177 -0.22680681 153.55236782 -0.22793579 151.82574463 C-0.22850311 147.1966901 -0.21685085 142.56774196 -0.20278788 137.93871188 C-0.19017557 133.07943196 -0.18910182 128.22014886 -0.18673706 123.3608551 C-0.18055285 114.18512093 -0.164184 105.00943516 -0.14403808 95.83372217 C-0.12158315 85.37645996 -0.11066166 74.91919527 -0.10064721 64.4619149 C-0.07981461 42.97457703 -0.04317721 21.48730539 0 0 Z " fill="#4986E8" transform="translate(116,527)"/>
<path d="M0 0 C19.14 0 38.28 0 58 0 C66.65496093 21.01919083 74.96275588 42.16170846 83.2253418 63.33737183 C88.0472907 75.69094572 92.89871667 88.03292343 97.75 100.375 C98.68141171 102.74502983 99.61280811 105.11506566 100.54418945 107.48510742 C102.42451475 112.26974401 104.30498824 117.05432231 106.18554688 121.83886719 C110.33548069 132.39753683 114.48342515 142.95698798 118.63150024 153.51638794 C119.99736278 156.99328677 121.36329304 160.47015898 122.72924805 163.94702148 C126.93844533 174.6610129 131.14743295 185.37508654 135.35565186 196.08946228 C137.28541265 201.00270034 139.21531131 205.91588425 141.14520264 210.82907104 C142.54178652 214.38476363 143.93813625 217.94054811 145.33447266 221.49633789 C149.30464011 231.60496951 153.27779092 241.71236497 157.26953125 251.8125 C157.58614212 252.61406021 157.90275299 253.41562042 158.22895813 254.24147034 C159.64994244 257.83883001 161.07240157 261.43558757 162.49829102 265.03100586 C162.97065186 266.22604736 163.4430127 267.42108887 163.9296875 268.65234375 C164.33429199 269.67320068 164.73889648 270.69405762 165.15576172 271.74584961 C166 274 166 274 166 275 C143.23 275 120.46 275 97 275 C87.65009124 251.6252281 87.65009124 251.6252281 83.69677734 240.78369141 C82.97571349 238.80847165 82.24778661 236.83585955 81.51953125 234.86328125 C81.0542899 233.59389565 80.58942947 232.32437036 80.125 231.0546875 C79.71507812 229.93562012 79.30515625 228.81655273 78.8828125 227.66357422 C78 225 78 225 78 223 C28.5 223.495 28.5 223.495 -22 224 C-28.27 240.83 -34.54 257.66 -41 275 C-63.11 275 -85.22 275 -108 275 C-107.19001951 270.95009753 -106.2249364 267.70626559 -104.7409668 263.89941406 C-104.27092728 262.68864197 -103.80088776 261.47786987 -103.31660461 260.23040771 C-102.79847485 258.90874857 -102.28017449 257.5871563 -101.76171875 256.265625 C-101.2209321 254.87885501 -100.68038403 253.49199197 -100.14006042 252.1050415 C-94.38400452 237.35140928 -88.53450283 222.63452621 -82.67663574 207.9210968 C-81.1914789 204.18971628 -79.70805169 200.45764835 -78.22460938 196.72558594 C-77.92752516 195.97818272 -77.63044094 195.2307795 -77.32435417 194.46072769 C-76.72732494 192.95870277 -76.13030381 191.45667464 -75.53329086 189.95464325 C-74.6510687 187.73519657 -73.76868144 185.5158156 -72.88626099 183.29644775 C-68.24393701 171.61965555 -63.61614423 159.93716798 -59 148.25 C-58.33488275 146.56632361 -57.66976232 144.88264847 -57.00463867 143.19897461 C-56.01668173 140.69801151 -55.02874814 138.19703922 -54.04090881 135.69602966 C-49.11428834 123.2241018 -44.17641369 110.75662437 -39.23999023 98.28857422 C-38.44254244 96.2744153 -37.64509779 94.26025514 -36.84765625 92.24609375 C-36.45100266 91.24425049 -36.05434906 90.24240723 -35.64567566 89.21020508 C-32.76085146 81.92333314 -29.87814816 74.63562405 -26.99609375 67.34765625 C-12.8411302 31.55682 -12.8411302 31.55682 -5.875 14.125 C-5.62420685 13.49672302 -5.3734137 12.86844604 -5.11502075 12.22113037 C-4.42923115 10.50379615 -3.74200636 8.78703525 -3.0546875 7.0703125 C-2.67812012 6.12945801 -2.30155273 5.18860352 -1.91357422 4.21923828 C-1 2 -1 2 0 0 Z M28 85 C25.43803206 91.22620618 23.12123989 97.4666415 21.0625 103.875 C17.73770759 114.02965991 14.13770127 124.07937183 10.5 134.125 C10.21670837 134.90749115 9.93341675 135.6899823 9.64154053 136.4961853 C6.07483351 146.34016905 2.49376169 156.17915551 -1.171875 165.98681641 C-2.44911486 168.91708915 -2.44911486 168.91708915 -3 172 C17.46 172 37.92 172 59 172 C51.83348286 151.91861495 51.83348286 151.91861495 44.5625 131.875 C38.96801287 116.38488777 33.99344981 100.69189141 29 85 C28.67 85 28.34 85 28 85 Z " fill="#4986E8" transform="translate(742,527)"/>
<path d="M0 0 C23.1 0 46.2 0 70 0 C75.74880088 13.79712211 75.74880088 13.79712211 78.28515625 20.49609375 C78.57826187 21.26570938 78.87136749 22.03532501 79.1733551 22.82826233 C80.13835814 25.36393655 81.1004985 27.90068567 82.0625 30.4375 C82.76276726 32.27998243 83.46312802 34.12242933 84.16357422 35.96484375 C90.51223943 52.67479885 96.82069871 69.40000048 103.12182617 86.12792969 C107.4612271 97.64449204 111.81503272 109.15533832 116.19809341 120.65534592 C116.95087467 122.63081339 117.70317216 124.60646436 118.45529175 126.58218384 C118.8252209 127.5539025 118.8252209 127.5539025 119.20262337 128.54525185 C119.69764898 129.84558812 120.19265816 131.14593065 120.68765068 132.44627953 C121.88596208 135.59341353 123.08617602 138.73979389 124.28887939 141.88525391 C132.92804649 164.48005752 132.92804649 164.48005752 136.6328125 175.48828125 C136.88030243 176.21903366 137.12779236 176.94978607 137.38278198 177.7026825 C138.33377299 180.59516848 139 182.93333309 139 186 C139.66 186 140.32 186 141 186 C141.12407227 184.97116699 141.24814453 183.94233398 141.37597656 182.88232422 C141.94852656 179.32023892 142.78093897 176.27300584 143.984375 172.8828125 C144.62850342 171.0584668 144.62850342 171.0584668 145.28564453 169.19726562 C145.77343497 167.83972583 146.26156777 166.48230902 146.75 165.125 C147.27347287 163.65566953 147.7967396 162.18626561 148.31982422 160.71679688 C154.36439964 143.79725617 160.62900396 126.95673058 166.85864258 110.10473633 C172.79610386 94.0348188 178.65432748 77.93855725 184.4375 61.8125 C191.84275908 41.16428615 199.38651284 20.57261425 207 0 C230.1 0 253.2 0 277 0 C273.22638198 10.06298139 269.42536174 20.08612327 265.4296875 30.05859375 C264.91000786 31.35881316 264.39043919 32.65907693 263.87097168 33.9593811 C262.49301336 37.40694414 261.11262356 40.85352822 259.73149872 44.29982376 C258.86598587 46.45999775 258.00116935 48.62044933 257.13653564 50.78097534 C248.80831889 71.58888652 240.39500713 92.36050415 231.90209961 113.10180664 C227.0290395 125.00600071 222.20158095 136.92677928 217.4375 148.875 C206.46758127 176.38633202 195.37657898 203.84899096 184.29349041 231.31487846 C182.23315701 236.42114825 180.17517418 241.52836311 178.11763 246.63575745 C176.68942956 250.17946172 175.25913502 253.7223168 173.82791138 257.26480103 C173.19819961 258.82448969 172.56933875 260.3845222 171.94137573 261.94491577 C171.1065132 264.01893063 170.26858071 266.09167542 169.4296875 268.1640625 C168.97835449 269.28248535 168.52702148 270.4009082 168.06201172 271.55322266 C167 274 167 274 166 275 C164.22008076 275.09370624 162.43643261 275.11744271 160.65405273 275.11352539 C159.5129454 275.11344986 158.37183807 275.11337433 157.19615173 275.11329651 C155.9545076 275.10813522 154.71286346 275.10297394 153.43359375 275.09765625 C151.53795433 275.09553383 151.53795433 275.09553383 149.60401917 275.09336853 C146.23875111 275.08870582 142.8735501 275.0797148 139.50830078 275.06866455 C136.0765033 275.05844846 132.64469891 275.05387049 129.21289062 275.04882812 C122.47524176 275.0377738 115.73762475 275.0210171 109 275 C102.72549858 259.41814207 96.45507237 243.83464632 90.1875 228.25 C89.71019943 227.06318886 89.23289886 225.87637772 88.74113464 224.6536026 C72.12658842 183.33811247 55.6129444 141.98328804 39.16654587 100.60052776 C27.24582988 70.60355545 27.24582988 70.60355545 15.19140625 40.66015625 C14.90481266 39.9525264 14.61821907 39.24489655 14.32294083 38.51582336 C11.55502745 31.68245267 8.77877173 24.85260087 5.98730469 18.02880859 C5.16468307 16.00749938 4.34208957 13.98617872 3.51953125 11.96484375 C2.9699752 10.63296776 2.9699752 10.63296776 2.40931702 9.27418518 C2.08579758 8.47721725 1.76227814 7.68024933 1.42895508 6.85913086 C1.15005936 6.17894394 0.87116364 5.49875702 0.58381653 4.79795837 C0 3 0 3 0 0 Z " fill="#4986E8" transform="translate(386,527)"/>
<path d="M0 0 C22.44 0 44.88 0 68 0 C68 72.6 68 145.2 68 220 C109.25 220 150.5 220 193 220 C193 240.13 193 260.26 193 281 C129.31 281 65.62 281 0 281 C0 188.27 0 95.54 0 0 Z " fill="#FF9800" transform="translate(591,147)"/>
<path d="M0 0 C6.78130833 5.63517171 11.23164853 11.44726103 12.25390625 20.328125 C12.65923598 29.96737262 10.57199772 41.26586909 3.94140625 48.61328125 C-2.25797071 53.2933118 -7.05193609 56.53890641 -15.05859375 55.61328125 C-17.80859375 54.11328125 -17.80859375 54.11328125 -20.05859375 52.61328125 C-24.00160846 52.29955576 -24.00160846 52.29955576 -26.87109375 54.11328125 C-30.66544366 55.89885768 -32.90646278 56.13229762 -37.05859375 55.61328125 C-42.77983065 52.69657224 -46.03237149 48.69194803 -48.05859375 42.61328125 C-49.07095005 34.64719893 -46.96626869 27.22198792 -42.703125 20.46484375 C-39.43253634 16.30865333 -36.22403709 14.10162933 -31.05859375 12.61328125 C-26.79146603 12.23572237 -23.13853404 12.25330115 -19.05859375 13.61328125 C-16.48593557 13.68357246 -13.94217944 13.70698957 -11.37109375 13.67578125 C-10.66919922 13.67126953 -9.96730469 13.66675781 -9.24414062 13.66210938 C-7.51558837 13.65035052 -5.7870801 13.63241579 -4.05859375 13.61328125 C-4.62241599 20.60693613 -5.68219774 27.37428968 -7.12109375 34.23828125 C-7.30736328 35.14707031 -7.49363281 36.05585938 -7.68554688 36.9921875 C-8.13876671 39.20018155 -8.59649068 41.40713249 -9.05859375 43.61328125 C-5.15942926 42.15029947 -3.11744837 41.33882771 -1.05859375 37.61328125 C1.25053702 30.44282254 2.48863146 23.35955409 -0.74609375 16.30078125 C-3.24259557 11.89467452 -6.15187423 9.50012754 -10.74609375 7.36328125 C-20.60704367 5.13061334 -30.69418053 6.83326603 -39.43359375 11.92578125 C-47.37134493 17.40120962 -51.13019774 25.30188339 -53.05859375 34.61328125 C-53.88537732 42.21697931 -52.51482107 48.79148176 -49.05859375 55.61328125 C-45.1612215 59.94369486 -39.58735346 62.21228583 -33.82421875 62.8671875 C-27.08562305 63.04146153 -21.0656952 61.72807459 -15.05859375 58.61328125 C-14.06859375 58.61328125 -13.07859375 58.61328125 -12.05859375 58.61328125 C-9.95088616 61.50162128 -9.05859375 62.9979052 -9.05859375 66.61328125 C-22.1068071 72.89753106 -31.85366597 75.54420055 -45.93359375 70.8671875 C-54.19829226 67.55097722 -58.51841896 62.69691923 -62.05859375 54.61328125 C-66.57679268 43.64051242 -64.45415307 31.2529996 -60.05859375 20.61328125 C-55.02629726 9.82978878 -47.48630918 3.20271992 -36.63671875 -1.4765625 C-26.20573917 -5.15901438 -9.550068 -6.06489113 0 0 Z M-27.05859375 24.61328125 C-30.49233053 28.71161225 -32.20937568 31.41558325 -32.12109375 36.80078125 C-32.10046875 38.05890625 -32.07984375 39.31703125 -32.05859375 40.61328125 C-30.40859375 40.94328125 -28.75859375 41.27328125 -27.05859375 41.61328125 C-24.33350109 38.43400648 -22.15255341 35.69076726 -21.05859375 31.61328125 C-21.35947091 28.38499888 -21.35947091 28.38499888 -22.05859375 25.61328125 C-23.70859375 25.28328125 -25.35859375 24.95328125 -27.05859375 24.61328125 Z " fill="#F4F4F4" transform="translate(538.05859375,455.38671875)"/>
<path d="M0 0 C6.78130833 5.63517171 11.23164853 11.44726103 12.25390625 20.328125 C12.65923598 29.96737262 10.57199772 41.26586909 3.94140625 48.61328125 C-2.25797071 53.2933118 -7.05193609 56.53890641 -15.05859375 55.61328125 C-17.80859375 54.11328125 -17.80859375 54.11328125 -20.05859375 52.61328125 C-24.00160846 52.29955576 -24.00160846 52.29955576 -26.87109375 54.11328125 C-30.66544366 55.89885768 -32.90646278 56.13229762 -37.05859375 55.61328125 C-42.77983065 52.69657224 -46.03237149 48.69194803 -48.05859375 42.61328125 C-49.07095005 34.64719893 -46.96626869 27.22198792 -42.703125 20.46484375 C-39.43253634 16.30865333 -36.22403709 14.10162933 -31.05859375 12.61328125 C-26.79146603 12.23572237 -23.13853404 12.25330115 -19.05859375 13.61328125 C-16.48593557 13.68357246 -13.94217944 13.70698957 -11.37109375 13.67578125 C-10.66919922 13.67126953 -9.96730469 13.66675781 -9.24414062 13.66210938 C-7.51558837 13.65035052 -5.7870801 13.63241579 -4.05859375 13.61328125 C-4.62241599 20.60693613 -5.68219774 27.37428968 -7.12109375 34.23828125 C-7.30736328 35.14707031 -7.49363281 36.05585938 -7.68554688 36.9921875 C-8.13876671 39.20018155 -8.59649068 41.40713249 -9.05859375 43.61328125 C-5.15942926 42.15029947 -3.11744837 41.33882771 -1.05859375 37.61328125 C1.25053702 30.44282254 2.48863146 23.35955409 -0.74609375 16.30078125 C-3.24259557 11.89467452 -6.15187423 9.50012754 -10.74609375 7.36328125 C-20.60704367 5.13061334 -30.69418053 6.83326603 -39.43359375 11.92578125 C-47.37134493 17.40120962 -51.13019774 25.30188339 -53.05859375 34.61328125 C-53.88537732 42.21697931 -52.51482107 48.79148176 -49.05859375 55.61328125 C-45.1612215 59.94369486 -39.58735346 62.21228583 -33.82421875 62.8671875 C-27.08562305 63.04146153 -21.0656952 61.72807459 -15.05859375 58.61328125 C-14.06859375 58.61328125 -13.07859375 58.61328125 -12.05859375 58.61328125 C-9.95088616 61.50162128 -9.05859375 62.9979052 -9.05859375 66.61328125 C-22.1068071 72.89753106 -31.85366597 75.54420055 -45.93359375 70.8671875 C-54.19829226 67.55097722 -58.51841896 62.69691923 -62.05859375 54.61328125 C-66.57679268 43.64051242 -64.45415307 31.2529996 -60.05859375 20.61328125 C-55.02629726 9.82978878 -47.48630918 3.20271992 -36.63671875 -1.4765625 C-26.20573917 -5.15901438 -9.550068 -6.06489113 0 0 Z M-53.05859375 13.61328125 C-60.48265293 25.28295369 -62.18390872 36.02869441 -61.05859375 49.61328125 C-60.23790114 53.08784398 -59.07795106 55.68754575 -57.05859375 58.61328125 C-56.35734375 59.68578125 -55.65609375 60.75828125 -54.93359375 61.86328125 C-47.50502889 68.96886503 -38.86665286 71.01425031 -28.86328125 70.97265625 C-23.09258224 70.42757996 -18.06612474 68.50730091 -13.05859375 65.61328125 C-12.72859375 64.95328125 -12.39859375 64.29328125 -12.05859375 63.61328125 C-12.38859375 62.95328125 -12.71859375 62.29328125 -13.05859375 61.61328125 C-13.67863281 61.82984375 -14.29867187 62.04640625 -14.9375 62.26953125 C-24.60074206 65.30775583 -35.26391669 66.82378993 -44.74609375 62.48828125 C-50.34037139 59.20407846 -53.06825548 54.68422935 -55.05859375 48.61328125 C-56.62522115 36.23022434 -54.9897181 24.98920358 -47.49609375 14.73828125 C-41.31288909 8.1686263 -32.14764234 4.94039607 -23.3515625 4.375 C-14.62646042 4.13727319 -7.84463802 4.08622206 -1.25390625 10.3203125 C3.585718 16.15239425 3.81438427 22.51672041 3.41015625 29.77734375 C2.69448923 35.63388552 1.14946379 40.40522371 -3.05859375 44.61328125 C-5.7469876 44.88320031 -8.35001311 44.70065482 -11.05859375 44.61328125 C-10.58166425 37.47578454 -9.29367913 30.68049183 -7.6796875 23.71484375 C-6.92769134 20.48678229 -6.92769134 20.48678229 -7.05859375 16.61328125 C-10.35859375 16.61328125 -13.65859375 16.61328125 -17.05859375 16.61328125 C-17.38859375 17.93328125 -17.71859375 19.25328125 -18.05859375 20.61328125 C-18.71859375 20.61328125 -19.37859375 20.61328125 -20.05859375 20.61328125 C-20.20296875 19.97390625 -20.34734375 19.33453125 -20.49609375 18.67578125 C-20.86866556 16.63782979 -20.86866556 16.63782979 -22.05859375 15.61328125 C-26.9988603 15.04575534 -30.94700683 15.05748779 -35.43359375 17.30078125 C-40.90349159 22.11950077 -44.56531037 27.19156034 -45.3828125 34.51953125 C-45.60590303 40.73529486 -45.38456438 44.79291398 -41.05859375 49.61328125 C-40.64609375 50.23203125 -40.23359375 50.85078125 -39.80859375 51.48828125 C-36.76284694 53.44626134 -33.49592434 53.20994996 -30.05859375 52.61328125 C-25.33436119 50.17777455 -25.33436119 50.17777455 -23.05859375 45.61328125 C-22.06859375 45.61328125 -21.07859375 45.61328125 -20.05859375 45.61328125 C-19.95546875 46.21140625 -19.85234375 46.80953125 -19.74609375 47.42578125 C-18.93461432 50.00776126 -18.16330051 50.93139504 -16.05859375 52.61328125 C-11.75426439 53.59953078 -7.65378459 53.46440656 -3.73046875 51.37109375 C-1.72068279 49.87491976 0.12476997 48.3376173 1.94140625 46.61328125 C2.46476563 46.17113281 2.988125 45.72898437 3.52734375 45.2734375 C9.26897904 38.53256734 9.64576629 27.3970467 9.38671875 19.00390625 C8.41568383 11.61041227 4.25349662 7.4417532 -1.3125 2.83984375 C-7.15437408 -1.26384408 -12.73213299 -0.78950002 -19.68359375 -0.82421875 C-20.82183594 -0.85708984 -21.96007812 -0.88996094 -23.1328125 -0.92382812 C-35.62638873 -1.00271982 -44.97111056 4.10575503 -53.05859375 13.61328125 Z " fill="#0C0C0C" transform="translate(538.05859375,455.38671875)"/>
<path d="M0 0 C23.21274413 -1.09812836 23.21274413 -1.09812836 32.0390625 6.83203125 C37.75484055 12.79478736 40.09227659 18.47765576 40.4375 26.6875 C40.2059661 35.38655952 37.94621749 45.41094819 32 52 C25.80062304 56.68003055 21.00665766 59.92562516 13 59 C10.25 57.5 10.25 57.5 8 56 C4.05698529 55.68627451 4.05698529 55.68627451 1.1875 57.5 C-2.60684991 59.28557643 -4.84786903 59.51901637 -9 59 C-14.7212369 56.08329099 -17.97377774 52.07866678 -20 46 C-21.0123563 38.03391768 -18.90767494 30.60870667 -14.64453125 23.8515625 C-11.37394259 19.69537208 -8.16544334 17.48834808 -3 16 C1.26712772 15.62244112 4.92005971 15.6400199 9 17 C11.57265818 17.07029121 14.11641431 17.09370832 16.6875 17.0625 C17.38939453 17.05798828 18.09128906 17.05347656 18.81445312 17.04882812 C20.54300538 17.03706927 22.27151365 17.01913454 24 17 C23.43617776 23.99365488 22.37639601 30.76100843 20.9375 37.625 C20.75123047 38.53378906 20.56496094 39.44257813 20.37304688 40.37890625 C19.91982704 42.5869003 19.46210307 44.79385124 19 47 C22.96479572 45.52069807 25.77588233 43.76352943 29 41 C28.65447612 43.55687669 28.24912987 45.57501375 26.9375 47.8125 C23.71431651 49.78799956 20.72347338 49.24022409 17 49 C16.67 48.67 16.34 48.34 16 48 C16.45456899 38.45405121 18.8284124 29.27217405 21 20 C17.7 20 14.4 20 11 20 C10.67 21.32 10.34 22.64 10 24 C9.34 24 8.68 24 8 24 C7.34 22.68 6.68 21.36 6 20 C1.12932052 19.65346944 -2.80377649 19.45831388 -7.3125 21.5 C-11.98722543 25.84858179 -15.66689897 31.2157539 -16.23828125 37.70703125 C-16.39294509 44.17849186 -16.3848079 48.09933234 -12 53 C-10.02491908 55.39723945 -10.02491908 55.39723945 -6.25 55.375 C-1.89776758 55.27986924 0.63387871 53.79141765 4 51 C4.33 50.34 4.66 49.68 5 49 C5.99 49 6.98 49 8 49 C8.66 50.98 9.32 52.96 10 55 C18.76716931 55.8144093 18.76716931 55.8144093 26.5625 52.3125 C33.1745166 46.42452654 35.51373456 38.95677028 36.36328125 30.296875 C36.59773067 23.57152599 36.70444126 18.06209059 32.49609375 12.578125 C27.585461 7.39824084 23.10686715 3.84093723 15.796875 3.5859375 C14.8171875 3.54726563 13.8375 3.50859375 12.828125 3.46875 C11.81234375 3.4378125 10.7965625 3.406875 9.75 3.375 C8.203125 3.31699219 8.203125 3.31699219 6.625 3.2578125 C4.0835106 3.16368326 1.54202567 3.07805021 -1 3 C-0.67 2.01 -0.34 1.02 0 0 Z " fill="#121212" transform="translate(510,452)"/>
<path d="M0 0 C2.50552308 3.75828462 2.37195709 5.53651494 2 10 C0.6875 13.6875 0.6875 13.6875 -1 17 C-1.391875 17.804375 -1.78375 18.60875 -2.1875 19.4375 C-4.38207659 21.32937637 -5.28578001 21.26189002 -8.125 21.3125 C-12 21 -12 21 -13 20 C-14.0725466 7.70967088 -14.0725466 7.70967088 -11.125 3.25 C-7.60377635 -0.47835445 -5.04590449 -0.36042175 0 0 Z M-6 2 C-9.43373678 6.098331 -11.15078193 8.802302 -11.0625 14.1875 C-11.041875 15.445625 -11.02125 16.70375 -11 18 C-9.35 18.33 -7.7 18.66 -6 19 C-3.27490734 15.82072523 -1.09395966 13.07748601 0 9 C-0.30087716 5.77171763 -0.30087716 5.77171763 -1 3 C-2.65 2.67 -4.3 2.34 -6 2 Z " fill="#0A0A0A" transform="translate(517,478)"/>
<path d="M0 0 C0 0.66 0 1.32 0 2 C-0.68964844 2.20753906 -1.37929688 2.41507812 -2.08984375 2.62890625 C-9.24491536 4.97467047 -14.30769907 8.14181841 -20 13 C-21.32640524 14.0091714 -22.65771213 15.0120521 -24 16 C-24 12 -24 12 -22.63671875 10.25390625 C-16.24851268 4.71063324 -8.78098943 -0.52211289 0 0 Z " fill="#080808" transform="translate(509,453)"/>
<path d="M0 0 C1.00289063 0.10183594 2.00578125 0.20367187 3.0390625 0.30859375 C3.80992187 0.39238281 4.58078125 0.47617187 5.375 0.5625 C5.375 0.8925 5.375 1.2225 5.375 1.5625 C4.79492188 1.58828125 4.21484375 1.6140625 3.6171875 1.640625 C-1.89781992 2.04105458 -5.16732569 3.06004161 -9.625 6.5625 C-10.615 7.2225 -11.605 7.8825 -12.625 8.5625 C-12.625 7.2425 -12.625 5.9225 -12.625 4.5625 C-8.17217342 0.46121236 -5.94225622 -0.62186402 0 0 Z " fill="#171717" transform="translate(509.625,469.4375)"/>
<path d="M0 0 C0 0.66 0 1.32 0 2 C-3.96 3.32 -7.92 4.64 -12 6 C-10 2 -10 2 -7.6875 0.75 C-4.98166314 -0.00511726 -2.79292118 -0.1595955 0 0 Z " fill="#010101" transform="translate(509,453)"/>
<path d="M0 0 C1.39195915 4.17587745 -0.17676781 6.13474776 -2 10 C-2.66 9.67 -3.32 9.34 -4 9 C-3.38461538 3.46153846 -3.38461538 3.46153846 -1.4375 1.125 C-0.963125 0.75375 -0.48875 0.3825 0 0 Z " fill="#060606" transform="translate(496,477)"/>
<path d="M0 0 C-1.97420135 2.52259061 -2.96745642 2.9929808 -6.1875 3.6875 C-7.5796875 3.8421875 -7.5796875 3.8421875 -9 4 C-8 1 -8 1 -5.625 -0.25 C-3 -1 -3 -1 0 0 Z " fill="#121212" transform="translate(524,523)"/>
<path d="M0 0 C0.33 0.66 0.66 1.32 1 2 C-0.25 5.0625 -0.25 5.0625 -2 8 C-2.99 8.33 -3.98 8.66 -5 9 C-4.5206753 4.68607774 -3.2542015 2.83430453 0 0 Z " fill="#0B0B0B" transform="translate(489,474)"/>
</svg>
